<svg width="490" height="138" viewBox="0 0 490 138" fill="none" xmlns="http://www.w3.org/2000/svg">
<path d="M174.899 2.3527L174.222 1.6761L173.546 2.3527L96.3592 79.5392L97.7124 80.8924L174.222 4.38249L191.752 21.9123L136.374 79.5529L137.754 80.8787L193.106 23.2658L250.732 80.8924L251.012 81.1726H251.409H288.567H290.88L289.243 79.5385L211.897 2.352L211.206 1.66314L210.531 2.36638L193.078 20.532L174.899 2.3527Z" stroke="#31294F" stroke-width="1.91371"/>
<path d="M31.632 94.016C31.504 95.776 31.408 97.472 31.344 99.104C31.312 100.736 31.296 101.984 31.296 102.848C31.296 103.552 31.312 104.208 31.344 104.816C31.376 105.424 31.408 105.952 31.44 106.4H30.336C29.696 103.552 28.928 101.312 28.032 99.68C27.136 98.016 26.112 96.848 24.96 96.176C23.84 95.472 22.624 95.12 21.312 95.12H20.736V122.528C20.736 123.84 20.864 124.816 21.12 125.456C21.408 126.096 21.92 126.528 22.656 126.752C23.424 126.944 24.528 127.04 25.968 127.04V128C24.912 127.968 23.488 127.936 21.696 127.904C19.936 127.872 18.096 127.856 16.176 127.856C14.288 127.856 12.512 127.872 10.848 127.904C9.184 127.936 7.84 127.968 6.816 128V127.04C8.256 127.04 9.36 126.944 10.128 126.752C10.896 126.528 11.408 126.096 11.664 125.456C11.92 124.816 12.048 123.84 12.048 122.528V95.12H11.52C10.176 95.12 8.944 95.472 7.824 96.176C6.704 96.848 5.696 98 4.8 99.632C3.904 101.264 3.12 103.52 2.448 106.4H1.344C1.408 105.952 1.44 105.424 1.44 104.816C1.472 104.208 1.488 103.552 1.488 102.848C1.488 101.984 1.456 100.736 1.392 99.104C1.36 97.472 1.28 95.776 1.152 94.016C2.656 94.048 4.304 94.08 6.096 94.112C7.92 94.144 9.728 94.16 11.52 94.16C13.312 94.16 14.944 94.16 16.416 94.16C17.888 94.16 19.52 94.16 21.312 94.16C23.136 94.16 24.944 94.144 26.736 94.112C28.528 94.08 30.16 94.048 31.632 94.016ZM49.9496 94.016V94.976C48.9576 95.008 48.2056 95.136 47.6936 95.36C47.1816 95.552 46.8456 95.936 46.6856 96.512C46.5256 97.056 46.4456 97.92 46.4456 99.104V122.912C46.4456 124.064 46.5256 124.928 46.6856 125.504C46.8776 126.08 47.2136 126.464 47.6936 126.656C48.2056 126.848 48.9576 126.976 49.9496 127.04V128C49.0536 127.936 47.9016 127.904 46.4936 127.904C45.1176 127.872 43.7256 127.856 42.3176 127.856C40.6856 127.856 39.1496 127.872 37.7096 127.904C36.2696 127.904 35.1176 127.936 34.2536 128V127.04C35.2456 126.976 35.9816 126.848 36.4616 126.656C36.9736 126.464 37.3096 126.08 37.4696 125.504C37.6616 124.928 37.7576 124.064 37.7576 122.912V99.104C37.7576 97.92 37.6616 97.056 37.4696 96.512C37.3096 95.936 36.9736 95.552 36.4616 95.36C35.9816 95.136 35.2456 95.008 34.2536 94.976V94.016C35.1176 94.048 36.2696 94.08 37.7096 94.112C39.1496 94.144 40.6856 94.16 42.3176 94.16C43.7256 94.16 45.1176 94.144 46.4936 94.112C47.9016 94.08 49.0536 94.048 49.9496 94.016ZM83.0539 94.016C82.9259 95.776 82.8299 97.472 82.7659 99.104C82.7339 100.736 82.7179 101.984 82.7179 102.848C82.7179 103.552 82.7339 104.208 82.7659 104.816C82.7979 105.424 82.8299 105.952 82.8619 106.4H81.7579C81.1179 103.552 80.3499 101.312 79.4539 99.68C78.5579 98.016 77.5339 96.848 76.3819 96.176C75.2619 95.472 74.0459 95.12 72.7339 95.12H72.1579V122.528C72.1579 123.84 72.2859 124.816 72.5419 125.456C72.8299 126.096 73.3419 126.528 74.0779 126.752C74.8459 126.944 75.9499 127.04 77.3899 127.04V128C76.3339 127.968 74.9099 127.936 73.1179 127.904C71.3579 127.872 69.5179 127.856 67.5979 127.856C65.7099 127.856 63.9339 127.872 62.2699 127.904C60.6059 127.936 59.2619 127.968 58.2379 128V127.04C59.6779 127.04 60.7819 126.944 61.5499 126.752C62.3179 126.528 62.8299 126.096 63.0859 125.456C63.3419 124.816 63.4699 123.84 63.4699 122.528V95.12H62.9419C61.5979 95.12 60.3659 95.472 59.2459 96.176C58.1259 96.848 57.1179 98 56.2219 99.632C55.3259 101.264 54.5419 103.52 53.8699 106.4H52.7659C52.8299 105.952 52.8619 105.424 52.8619 104.816C52.8939 104.208 52.9099 103.552 52.9099 102.848C52.9099 101.984 52.8779 100.736 52.8139 99.104C52.7819 97.472 52.7019 95.776 52.5739 94.016C54.0779 94.048 55.7259 94.08 57.5179 94.112C59.3419 94.144 61.1499 94.16 62.9419 94.16C64.7339 94.16 66.3659 94.16 67.8379 94.16C69.3099 94.16 70.9419 94.16 72.7339 94.16C74.5579 94.16 76.3659 94.144 78.1579 94.112C79.9499 94.08 81.5819 94.048 83.0539 94.016ZM99.6184 93.968L111.234 123.968C111.714 125.088 112.21 125.872 112.722 126.32C113.266 126.768 113.746 127.008 114.162 127.04V128C113.138 127.936 111.906 127.904 110.466 127.904C109.058 127.872 107.618 127.856 106.146 127.856C104.61 127.856 103.154 127.872 101.778 127.904C100.402 127.904 99.2984 127.936 98.4664 128V127.04C100.098 126.976 101.138 126.704 101.586 126.224C102.034 125.712 101.938 124.64 101.298 123.008L93.3304 101.216L94.2904 99.776L87.2824 117.872C86.5464 119.792 86.0984 121.344 85.9384 122.528C85.7784 123.712 85.8584 124.624 86.1784 125.264C86.4984 125.904 86.9944 126.352 87.6664 126.608C88.3704 126.864 89.2024 127.008 90.1624 127.04V128C89.0424 127.936 88.0024 127.904 87.0424 127.904C86.1144 127.872 85.1064 127.856 84.0184 127.856C83.3784 127.856 82.7224 127.872 82.0504 127.904C81.4104 127.904 80.8504 127.936 80.3704 128V127.04C81.0744 126.912 81.7784 126.464 82.4824 125.696C83.2184 124.928 83.9384 123.6 84.6424 121.712L95.4424 93.968C96.0824 94.032 96.7704 94.064 97.5064 94.064C98.2744 94.064 98.9784 94.032 99.6184 93.968ZM102.114 114.176V115.136H87.8104L88.2904 114.176H102.114ZM146.522 94.016V94.976C145.562 95.136 144.826 95.44 144.314 95.888C143.802 96.336 143.45 97.024 143.258 97.952C143.098 98.88 143.018 100.192 143.018 101.888V128.048C142.602 127.984 142.154 127.952 141.674 127.952C141.194 127.952 140.682 127.984 140.138 128.048L119.066 103.232V119.36C119.066 121.312 119.162 122.816 119.354 123.872C119.546 124.896 119.978 125.632 120.65 126.08C121.322 126.528 122.378 126.848 123.818 127.04V128C123.21 127.936 122.394 127.904 121.37 127.904C120.378 127.872 119.434 127.856 118.538 127.856C117.834 127.856 117.098 127.872 116.33 127.904C115.594 127.904 114.97 127.936 114.458 128V127.04C115.482 126.848 116.234 126.544 116.714 126.128C117.226 125.68 117.562 124.992 117.722 124.064C117.882 123.104 117.962 121.792 117.962 120.128V99.104C117.962 97.92 117.882 97.056 117.722 96.512C117.562 95.936 117.226 95.552 116.714 95.36C116.202 95.136 115.45 95.008 114.458 94.976V94.016C114.97 94.048 115.594 94.08 116.33 94.112C117.098 94.144 117.834 94.16 118.538 94.16C119.338 94.16 120.106 94.144 120.842 94.112C121.578 94.08 122.25 94.048 122.858 94.016L141.914 115.808V102.656C141.914 100.704 141.818 99.216 141.626 98.192C141.466 97.136 141.05 96.384 140.378 95.936C139.738 95.456 138.666 95.136 137.162 94.976V94.016C137.802 94.048 138.618 94.08 139.61 94.112C140.634 94.144 141.578 94.16 142.442 94.16C143.21 94.16 143.962 94.144 144.698 94.112C145.434 94.08 146.042 94.048 146.522 94.016ZM160.207 94.016C161.071 94.048 162.223 94.08 163.663 94.112C165.103 94.144 166.543 94.16 167.983 94.16C169.551 94.16 171.055 94.144 172.495 94.112C173.967 94.08 175.007 94.064 175.615 94.064C178.751 94.064 181.327 94.384 183.343 95.024C185.391 95.664 186.927 96.608 187.951 97.856C188.975 99.072 189.487 100.592 189.487 102.416C189.487 103.568 189.247 104.704 188.767 105.824C188.319 106.912 187.535 107.92 186.415 108.848C185.327 109.776 183.807 110.512 181.855 111.056C179.935 111.6 177.503 111.872 174.559 111.872H169.951V110.912H174.079C175.839 110.912 177.167 110.56 178.063 109.856C178.991 109.12 179.615 108.16 179.935 106.976C180.287 105.76 180.463 104.416 180.463 102.944C180.463 100.416 180.063 98.464 179.263 97.088C178.463 95.68 177.103 94.976 175.183 94.976C173.999 94.976 173.231 95.248 172.879 95.792C172.559 96.336 172.399 97.44 172.399 99.104V122.912C172.399 124.064 172.479 124.928 172.639 125.504C172.831 126.08 173.167 126.464 173.647 126.656C174.159 126.848 174.911 126.976 175.903 127.04V128C175.007 127.936 173.855 127.904 172.447 127.904C171.071 127.872 169.679 127.856 168.271 127.856C166.639 127.856 165.103 127.872 163.663 127.904C162.223 127.904 161.071 127.936 160.207 128V127.04C161.199 126.976 161.935 126.848 162.415 126.656C162.927 126.464 163.263 126.08 163.423 125.504C163.615 124.928 163.711 124.064 163.711 122.912V99.104C163.711 97.92 163.615 97.056 163.423 96.512C163.263 95.936 162.927 95.552 162.415 95.36C161.935 95.136 161.199 95.008 160.207 94.976V94.016ZM169.759 111.056C171.007 111.088 172.143 111.152 173.167 111.248C174.191 111.344 175.103 111.44 175.903 111.536C176.735 111.6 177.455 111.648 178.063 111.68C181.231 111.872 183.583 112.48 185.119 113.504C186.687 114.496 187.679 115.984 188.095 117.968L189.103 122.96C189.391 124.176 189.695 125.04 190.015 125.552C190.335 126.032 190.783 126.256 191.359 126.224C191.711 126.224 192.015 126.16 192.271 126.032C192.527 125.872 192.783 125.648 193.039 125.36L193.711 125.984C192.783 126.976 191.775 127.664 190.687 128.048C189.599 128.464 188.335 128.672 186.895 128.672C185.007 128.672 183.455 128.304 182.239 127.568C181.055 126.832 180.303 125.472 179.983 123.488L179.167 118.688C178.975 117.376 178.719 116.208 178.399 115.184C178.111 114.16 177.711 113.36 177.199 112.784C176.687 112.176 175.967 111.872 175.039 111.872H169.855L169.759 111.056ZM220.353 94.016C220.225 95.52 220.129 96.976 220.065 98.384C220.033 99.792 220.017 100.864 220.017 101.6C220.017 102.24 220.033 102.864 220.065 103.472C220.097 104.08 220.129 104.576 220.161 104.96H219.057C218.705 102.464 218.129 100.496 217.329 99.056C216.561 97.616 215.601 96.608 214.449 96.032C213.329 95.424 212.081 95.12 210.705 95.12H209.409C208.545 95.12 207.873 95.2 207.393 95.36C206.945 95.488 206.641 95.776 206.481 96.224C206.353 96.672 206.289 97.376 206.289 98.336V123.68C206.289 124.608 206.353 125.312 206.481 125.792C206.641 126.24 206.945 126.544 207.393 126.704C207.873 126.832 208.545 126.896 209.409 126.896H211.377C212.625 126.896 213.809 126.576 214.929 125.936C216.081 125.264 217.105 124.144 218.001 122.576C218.897 120.976 219.569 118.816 220.017 116.096H221.121C221.025 117.184 220.977 118.592 220.977 120.32C220.977 121.088 220.993 122.176 221.025 123.584C221.057 124.992 221.153 126.464 221.313 128C219.681 127.936 217.841 127.904 215.793 127.904C213.745 127.872 211.921 127.856 210.321 127.856C209.489 127.856 208.433 127.856 207.153 127.856C205.873 127.856 204.481 127.872 202.977 127.904C201.473 127.904 199.953 127.92 198.417 127.952C196.881 127.952 195.441 127.968 194.097 128V127.04C195.089 126.976 195.825 126.848 196.305 126.656C196.817 126.464 197.153 126.08 197.313 125.504C197.505 124.928 197.601 124.064 197.601 122.912V99.104C197.601 97.92 197.505 97.056 197.313 96.512C197.153 95.936 196.817 95.552 196.305 95.36C195.825 95.136 195.089 95.008 194.097 94.976V94.016C195.473 94.048 196.913 94.08 198.417 94.112C199.953 94.112 201.457 94.128 202.929 94.16C204.433 94.16 205.825 94.16 207.105 94.16C208.417 94.16 209.489 94.16 210.321 94.16C211.793 94.16 213.457 94.16 215.313 94.16C217.201 94.128 218.881 94.08 220.353 94.016ZM213.105 110.432C213.105 110.432 213.105 110.592 213.105 110.912C213.105 111.232 213.105 111.392 213.105 111.392H204.849C204.849 111.392 204.849 111.232 204.849 110.912C204.849 110.592 204.849 110.432 204.849 110.432H213.105ZM214.497 104.096C214.369 105.92 214.305 107.312 214.305 108.272C214.337 109.232 214.353 110.112 214.353 110.912C214.353 111.712 214.369 112.592 214.401 113.552C214.433 114.512 214.513 115.904 214.641 117.728H213.537C213.377 116.576 213.041 115.52 212.529 114.56C212.017 113.6 211.329 112.832 210.465 112.256C209.601 111.68 208.545 111.392 207.297 111.392V110.432C208.225 110.432 209.041 110.24 209.745 109.856C210.449 109.44 211.041 108.912 211.521 108.272C212.033 107.632 212.449 106.944 212.769 106.208C213.089 105.472 213.297 104.768 213.393 104.096H214.497ZM241.79 93.968L253.406 123.968C253.886 125.088 254.382 125.872 254.894 126.32C255.438 126.768 255.918 127.008 256.334 127.04V128C255.31 127.936 254.078 127.904 252.638 127.904C251.23 127.872 249.79 127.856 248.318 127.856C246.782 127.856 245.326 127.872 243.95 127.904C242.574 127.904 241.47 127.936 240.638 128V127.04C242.27 126.976 243.31 126.704 243.758 126.224C244.206 125.712 244.11 124.64 243.47 123.008L235.502 101.216L236.462 99.776L229.454 117.872C228.718 119.792 228.27 121.344 228.11 122.528C227.95 123.712 228.03 124.624 228.35 125.264C228.67 125.904 229.166 126.352 229.838 126.608C230.542 126.864 231.374 127.008 232.334 127.04V128C231.214 127.936 230.174 127.904 229.214 127.904C228.286 127.872 227.278 127.856 226.19 127.856C225.55 127.856 224.894 127.872 224.222 127.904C223.582 127.904 223.022 127.936 222.542 128V127.04C223.246 126.912 223.95 126.464 224.654 125.696C225.39 124.928 226.11 123.6 226.814 121.712L237.614 93.968C238.254 94.032 238.942 94.064 239.678 94.064C240.446 94.064 241.15 94.032 241.79 93.968ZM244.286 114.176V115.136H229.982L230.462 114.176H244.286ZM272.662 94.016V94.976C271.574 95.008 270.742 95.136 270.166 95.36C269.622 95.552 269.254 95.936 269.062 96.512C268.87 97.056 268.774 97.92 268.774 99.104V123.68C268.774 124.608 268.838 125.312 268.966 125.792C269.126 126.24 269.398 126.544 269.782 126.704C270.166 126.832 270.742 126.896 271.51 126.896H273.478C274.438 126.896 275.398 126.608 276.358 126.032C277.318 125.456 278.214 124.656 279.046 123.632C279.878 122.576 280.598 121.376 281.206 120.032C281.814 118.656 282.246 117.184 282.502 115.616H283.606C283.51 116.736 283.462 118.176 283.462 119.936C283.462 120.736 283.478 121.888 283.51 123.392C283.542 124.864 283.638 126.4 283.798 128C282.166 127.936 280.326 127.904 278.278 127.904C276.23 127.872 274.406 127.856 272.806 127.856C271.974 127.856 270.918 127.856 269.638 127.856C268.358 127.856 266.966 127.872 265.462 127.904C263.958 127.904 262.438 127.92 260.902 127.952C259.366 127.952 257.926 127.968 256.582 128V127.04C257.574 126.976 258.31 126.848 258.79 126.656C259.302 126.464 259.638 126.08 259.798 125.504C259.99 124.928 260.086 124.064 260.086 122.912V99.104C260.086 97.92 259.99 97.056 259.798 96.512C259.638 95.936 259.302 95.552 258.79 95.36C258.31 95.136 257.574 95.008 256.582 94.976V94.016C257.446 94.048 258.598 94.08 260.038 94.112C261.478 94.144 263.014 94.16 264.646 94.16C266.15 94.16 267.622 94.144 269.062 94.112C270.502 94.08 271.702 94.048 272.662 94.016ZM322.494 94.016C322.366 95.52 322.27 96.976 322.206 98.384C322.174 99.792 322.158 100.864 322.158 101.6C322.158 102.24 322.174 102.864 322.206 103.472C322.238 104.08 322.27 104.576 322.302 104.96H321.198C320.846 102.464 320.27 100.496 319.47 99.056C318.702 97.616 317.742 96.608 316.59 96.032C315.47 95.424 314.222 95.12 312.846 95.12H311.55C310.686 95.12 310.014 95.2 309.534 95.36C309.086 95.488 308.782 95.776 308.622 96.224C308.494 96.672 308.43 97.376 308.43 98.336V123.68C308.43 124.608 308.494 125.312 308.622 125.792C308.782 126.24 309.086 126.544 309.534 126.704C310.014 126.832 310.686 126.896 311.55 126.896H313.518C314.766 126.896 315.95 126.576 317.07 125.936C318.222 125.264 319.246 124.144 320.142 122.576C321.038 120.976 321.71 118.816 322.158 116.096H323.262C323.166 117.184 323.118 118.592 323.118 120.32C323.118 121.088 323.134 122.176 323.166 123.584C323.198 124.992 323.294 126.464 323.454 128C321.822 127.936 319.982 127.904 317.934 127.904C315.886 127.872 314.062 127.856 312.462 127.856C311.63 127.856 310.574 127.856 309.294 127.856C308.014 127.856 306.622 127.872 305.118 127.904C303.614 127.904 302.094 127.92 300.558 127.952C299.022 127.952 297.582 127.968 296.238 128V127.04C297.23 126.976 297.966 126.848 298.446 126.656C298.958 126.464 299.294 126.08 299.454 125.504C299.646 124.928 299.742 124.064 299.742 122.912V99.104C299.742 97.92 299.646 97.056 299.454 96.512C299.294 95.936 298.958 95.552 298.446 95.36C297.966 95.136 297.23 95.008 296.238 94.976V94.016C297.614 94.048 299.054 94.08 300.558 94.112C302.094 94.112 303.598 94.128 305.07 94.16C306.574 94.16 307.966 94.16 309.246 94.16C310.558 94.16 311.63 94.16 312.462 94.16C313.934 94.16 315.598 94.16 317.454 94.16C319.342 94.128 321.022 94.08 322.494 94.016ZM315.246 110.432C315.246 110.432 315.246 110.592 315.246 110.912C315.246 111.232 315.246 111.392 315.246 111.392H306.99C306.99 111.392 306.99 111.232 306.99 110.912C306.99 110.592 306.99 110.432 306.99 110.432H315.246ZM316.638 104.096C316.51 105.92 316.446 107.312 316.446 108.272C316.478 109.232 316.494 110.112 316.494 110.912C316.494 111.712 316.51 112.592 316.542 113.552C316.574 114.512 316.654 115.904 316.782 117.728H315.678C315.518 116.576 315.182 115.52 314.67 114.56C314.158 113.6 313.47 112.832 312.606 112.256C311.742 111.68 310.686 111.392 309.438 111.392V110.432C310.366 110.432 311.182 110.24 311.886 109.856C312.59 109.44 313.182 108.912 313.662 108.272C314.174 107.632 314.59 106.944 314.91 106.208C315.23 105.472 315.438 104.768 315.534 104.096H316.638ZM339.611 93.392C341.595 93.392 343.131 93.6 344.219 94.016C345.307 94.4 346.235 94.816 347.003 95.264C347.387 95.488 347.691 95.664 347.915 95.792C348.171 95.888 348.411 95.936 348.635 95.936C348.955 95.936 349.179 95.76 349.307 95.408C349.467 95.056 349.595 94.528 349.691 93.824H350.795C350.763 94.464 350.715 95.216 350.651 96.08C350.619 96.944 350.587 98.096 350.555 99.536C350.555 100.944 350.555 102.816 350.555 105.152H349.451C349.323 103.424 348.923 101.76 348.251 100.16C347.579 98.56 346.651 97.232 345.467 96.176C344.315 95.12 342.891 94.592 341.195 94.592C339.723 94.592 338.507 95.008 337.547 95.84C336.587 96.64 336.107 97.792 336.107 99.296C336.107 100.512 336.411 101.568 337.019 102.464C337.627 103.328 338.539 104.208 339.755 105.104C341.003 106 342.571 107.104 344.459 108.416C345.963 109.408 347.307 110.4 348.491 111.392C349.675 112.384 350.619 113.504 351.323 114.752C352.059 116 352.427 117.504 352.427 119.264C352.427 121.376 351.851 123.136 350.699 124.544C349.547 125.92 348.027 126.96 346.139 127.664C344.251 128.336 342.187 128.672 339.947 128.672C337.867 128.672 336.203 128.48 334.955 128.096C333.739 127.712 332.699 127.312 331.835 126.896C331.131 126.448 330.587 126.224 330.203 126.224C329.883 126.224 329.643 126.4 329.483 126.752C329.355 127.104 329.243 127.632 329.147 128.336H328.043C328.107 127.536 328.139 126.608 328.139 125.552C328.171 124.464 328.187 123.072 328.187 121.376C328.219 119.68 328.235 117.52 328.235 114.896H329.339C329.467 117.072 329.819 119.104 330.395 120.992C331.003 122.88 331.915 124.416 333.131 125.6C334.379 126.752 336.027 127.328 338.075 127.328C339.227 127.328 340.235 127.136 341.099 126.752C341.963 126.368 342.651 125.808 343.163 125.072C343.675 124.304 343.931 123.376 343.931 122.288C343.931 120.944 343.627 119.776 343.019 118.784C342.411 117.792 341.579 116.864 340.523 116C339.467 115.104 338.235 114.208 336.827 113.312C335.323 112.32 333.915 111.312 332.603 110.288C331.291 109.264 330.235 108.128 329.435 106.88C328.667 105.6 328.283 104.064 328.283 102.272C328.283 100.224 328.811 98.544 329.867 97.232C330.923 95.92 332.315 94.96 334.043 94.352C335.803 93.712 337.659 93.392 339.611 93.392ZM385.866 94.016C385.738 95.776 385.642 97.472 385.578 99.104C385.546 100.736 385.53 101.984 385.53 102.848C385.53 103.552 385.546 104.208 385.578 104.816C385.61 105.424 385.642 105.952 385.674 106.4H384.57C383.93 103.552 383.162 101.312 382.266 99.68C381.37 98.016 380.346 96.848 379.194 96.176C378.074 95.472 376.858 95.12 375.546 95.12H374.97V122.528C374.97 123.84 375.098 124.816 375.354 125.456C375.642 126.096 376.154 126.528 376.89 126.752C377.658 126.944 378.762 127.04 380.202 127.04V128C379.146 127.968 377.722 127.936 375.93 127.904C374.17 127.872 372.33 127.856 370.41 127.856C368.522 127.856 366.746 127.872 365.082 127.904C363.418 127.936 362.074 127.968 361.05 128V127.04C362.49 127.04 363.594 126.944 364.362 126.752C365.13 126.528 365.642 126.096 365.898 125.456C366.154 124.816 366.282 123.84 366.282 122.528V95.12H365.754C364.41 95.12 363.178 95.472 362.058 96.176C360.938 96.848 359.93 98 359.034 99.632C358.138 101.264 357.354 103.52 356.682 106.4H355.578C355.642 105.952 355.674 105.424 355.674 104.816C355.706 104.208 355.722 103.552 355.722 102.848C355.722 101.984 355.69 100.736 355.626 99.104C355.594 97.472 355.514 95.776 355.386 94.016C356.89 94.048 358.538 94.08 360.33 94.112C362.154 94.144 363.962 94.16 365.754 94.16C367.546 94.16 369.178 94.16 370.65 94.16C372.122 94.16 373.754 94.16 375.546 94.16C377.37 94.16 379.178 94.144 380.97 94.112C382.762 94.08 384.394 94.048 385.866 94.016ZM402.431 93.968L414.047 123.968C414.527 125.088 415.023 125.872 415.535 126.32C416.079 126.768 416.559 127.008 416.975 127.04V128C415.951 127.936 414.719 127.904 413.279 127.904C411.871 127.872 410.431 127.856 408.959 127.856C407.423 127.856 405.967 127.872 404.591 127.904C403.215 127.904 402.111 127.936 401.279 128V127.04C402.911 126.976 403.951 126.704 404.399 126.224C404.847 125.712 404.751 124.64 404.111 123.008L396.143 101.216L397.103 99.776L390.095 117.872C389.359 119.792 388.911 121.344 388.751 122.528C388.591 123.712 388.671 124.624 388.991 125.264C389.311 125.904 389.807 126.352 390.479 126.608C391.183 126.864 392.015 127.008 392.975 127.04V128C391.855 127.936 390.815 127.904 389.855 127.904C388.927 127.872 387.919 127.856 386.831 127.856C386.191 127.856 385.535 127.872 384.863 127.904C384.223 127.904 383.663 127.936 383.183 128V127.04C383.887 126.912 384.591 126.464 385.295 125.696C386.031 124.928 386.751 123.6 387.455 121.712L398.255 93.968C398.895 94.032 399.583 94.064 400.319 94.064C401.087 94.064 401.791 94.032 402.431 93.968ZM404.927 114.176V115.136H390.623L391.103 114.176H404.927ZM444.741 94.016C444.613 95.776 444.517 97.472 444.453 99.104C444.421 100.736 444.405 101.984 444.405 102.848C444.405 103.552 444.421 104.208 444.453 104.816C444.485 105.424 444.517 105.952 444.549 106.4H443.445C442.805 103.552 442.037 101.312 441.141 99.68C440.245 98.016 439.221 96.848 438.069 96.176C436.949 95.472 435.733 95.12 434.421 95.12H433.845V122.528C433.845 123.84 433.973 124.816 434.229 125.456C434.517 126.096 435.029 126.528 435.765 126.752C436.533 126.944 437.637 127.04 439.077 127.04V128C438.021 127.968 436.597 127.936 434.805 127.904C433.045 127.872 431.205 127.856 429.285 127.856C427.397 127.856 425.621 127.872 423.957 127.904C422.293 127.936 420.949 127.968 419.925 128V127.04C421.365 127.04 422.469 126.944 423.237 126.752C424.005 126.528 424.517 126.096 424.773 125.456C425.029 124.816 425.157 123.84 425.157 122.528V95.12H424.629C423.285 95.12 422.053 95.472 420.933 96.176C419.813 96.848 418.805 98 417.909 99.632C417.013 101.264 416.229 103.52 415.557 106.4H414.453C414.517 105.952 414.549 105.424 414.549 104.816C414.581 104.208 414.597 103.552 414.597 102.848C414.597 101.984 414.565 100.736 414.501 99.104C414.469 97.472 414.389 95.776 414.261 94.016C415.765 94.048 417.413 94.08 419.205 94.112C421.029 94.144 422.837 94.16 424.629 94.16C426.421 94.16 428.053 94.16 429.525 94.16C430.997 94.16 432.629 94.16 434.421 94.16C436.245 94.16 438.053 94.144 439.845 94.112C441.637 94.08 443.269 94.048 444.741 94.016ZM473.619 94.016C473.491 95.52 473.395 96.976 473.331 98.384C473.299 99.792 473.283 100.864 473.283 101.6C473.283 102.24 473.299 102.864 473.331 103.472C473.363 104.08 473.395 104.576 473.427 104.96H472.323C471.971 102.464 471.395 100.496 470.595 99.056C469.827 97.616 468.867 96.608 467.715 96.032C466.595 95.424 465.347 95.12 463.971 95.12H462.675C461.811 95.12 461.139 95.2 460.659 95.36C460.211 95.488 459.907 95.776 459.747 96.224C459.619 96.672 459.555 97.376 459.555 98.336V123.68C459.555 124.608 459.619 125.312 459.747 125.792C459.907 126.24 460.211 126.544 460.659 126.704C461.139 126.832 461.811 126.896 462.675 126.896H464.643C465.891 126.896 467.075 126.576 468.195 125.936C469.347 125.264 470.371 124.144 471.267 122.576C472.163 120.976 472.835 118.816 473.283 116.096H474.387C474.291 117.184 474.243 118.592 474.243 120.32C474.243 121.088 474.259 122.176 474.291 123.584C474.323 124.992 474.419 126.464 474.579 128C472.947 127.936 471.107 127.904 469.059 127.904C467.011 127.872 465.187 127.856 463.587 127.856C462.755 127.856 461.699 127.856 460.419 127.856C459.139 127.856 457.747 127.872 456.243 127.904C454.739 127.904 453.219 127.92 451.683 127.952C450.147 127.952 448.707 127.968 447.363 128V127.04C448.355 126.976 449.091 126.848 449.571 126.656C450.083 126.464 450.419 126.08 450.579 125.504C450.771 124.928 450.867 124.064 450.867 122.912V99.104C450.867 97.92 450.771 97.056 450.579 96.512C450.419 95.936 450.083 95.552 449.571 95.36C449.091 95.136 448.355 95.008 447.363 94.976V94.016C448.739 94.048 450.179 94.08 451.683 94.112C453.219 94.112 454.723 94.128 456.195 94.16C457.699 94.16 459.091 94.16 460.371 94.16C461.683 94.16 462.755 94.16 463.587 94.16C465.059 94.16 466.723 94.16 468.579 94.16C470.467 94.128 472.147 94.08 473.619 94.016ZM466.371 110.432C466.371 110.432 466.371 110.592 466.371 110.912C466.371 111.232 466.371 111.392 466.371 111.392H458.115C458.115 111.392 458.115 111.232 458.115 110.912C458.115 110.592 458.115 110.432 458.115 110.432H466.371ZM467.763 104.096C467.635 105.92 467.571 107.312 467.571 108.272C467.603 109.232 467.619 110.112 467.619 110.912C467.619 111.712 467.635 112.592 467.667 113.552C467.699 114.512 467.779 115.904 467.907 117.728H466.803C466.643 116.576 466.307 115.52 465.795 114.56C465.283 113.6 464.595 112.832 463.731 112.256C462.867 111.68 461.811 111.392 460.563 111.392V110.432C461.491 110.432 462.307 110.24 463.011 109.856C463.715 109.44 464.307 108.912 464.787 108.272C465.299 107.632 465.715 106.944 466.035 106.208C466.355 105.472 466.563 104.768 466.659 104.096H467.763Z" fill="#31294F"/>
<path d="M192.976 49.0504L178.31 61.9858C178.201 62.0838 178.063 62.1294 177.943 62.2106V74.6219C177.943 75.2152 178.424 75.6957 179.017 75.6957H189.032L186.533 70.8094L193.52 66.5144L189.483 58.5135L199.418 67.6928L192.431 71.9878L195.11 75.6957H206.935C207.528 75.6957 208.008 75.2152 208.008 74.6219V62.2133C207.894 62.1355 207.759 62.0912 207.655 61.9986L192.976 49.0504ZM211.947 57.1921L208.008 53.7138V44.5567C208.008 43.9635 207.528 43.483 206.935 43.483H202.64C202.046 43.483 201.566 43.9635 201.566 44.5567V48.0256L194.771 42.0274C194.259 41.567 193.617 41.3361 192.976 41.3355C192.334 41.3348 191.694 41.5643 191.184 42.0247L174.004 57.1921C173.564 57.5888 173.527 58.2672 173.923 58.7088L175.359 60.3074C175.755 60.7483 176.434 60.7852 176.876 60.3886L192.266 46.8136C192.672 46.4559 193.28 46.4559 193.686 46.8136L209.076 60.3879C209.517 60.7839 210.196 60.7476 210.593 60.3067L212.029 58.7082C212.425 58.2672 212.389 57.5881 211.947 57.1921V57.1921Z" fill="#31294F" fill-opacity="0.7"/>
</svg>
