<svg width="490" height="235" viewBox="0 0 490 235" fill="none" xmlns="http://www.w3.org/2000/svg">
<path d="M144.899 2.3527L144.222 1.6761L143.546 2.3527L66.3592 79.5392L67.7124 80.8924L144.222 4.38249L161.752 21.9123L106.374 79.5529L107.754 80.8787L163.106 23.2658L220.732 80.8924L221.012 81.1726H221.409H258.567H260.88L259.243 79.5385L181.897 2.352L181.206 1.66314L180.531 2.36638L163.078 20.532L144.899 2.3527Z" stroke="black" stroke-width="1.91371"/>
<path d="M24.5926 94.3189C24.4904 95.6213 24.4138 96.8727 24.3627 98.0729C24.3372 99.2732 24.3244 100.193 24.3244 100.831C24.3244 101.393 24.3372 101.929 24.3627 102.44C24.3883 102.951 24.4138 103.385 24.4393 103.742H23.5583C23.1497 101.597 22.6262 99.8989 21.9878 98.6475C21.3749 97.3962 20.6343 96.5151 19.766 96.0044C18.8977 95.4681 17.8762 95.2 16.7015 95.2H15.8205V117.073C15.8205 118.094 15.9226 118.86 16.1269 119.371C16.3567 119.882 16.7653 120.227 17.3527 120.405C17.9401 120.559 18.7956 120.648 19.9192 120.674V121.44C19.1276 121.414 18.0678 121.389 16.7398 121.363C15.4374 121.338 14.0711 121.325 12.641 121.325C11.2365 121.325 9.90853 121.338 8.6572 121.363C7.40586 121.389 6.39713 121.414 5.63101 121.44V120.674C6.7802 120.648 7.64847 120.559 8.23583 120.405C8.82319 120.227 9.21902 119.882 9.42332 119.371C9.62762 118.86 9.72977 118.094 9.72977 117.073V95.2H8.88704C7.71231 95.2 6.69081 95.4681 5.82254 96.0044C4.95427 96.5151 4.21368 97.3962 3.60078 98.6475C2.98788 99.8733 2.4516 101.572 1.99192 103.742H1.11088C1.16195 103.385 1.18749 102.951 1.18749 102.44C1.21303 101.929 1.2258 101.393 1.2258 100.831C1.2258 100.193 1.20026 99.2732 1.14919 98.0729C1.12365 96.8727 1.0598 95.6213 0.957655 94.3189C2.13238 94.3445 3.40925 94.37 4.78827 94.3955C6.19283 94.4211 7.59739 94.4338 9.00195 94.4338C10.4065 94.4338 11.6706 94.4338 12.7943 94.4338C13.9435 94.4338 15.2076 94.4338 16.5866 94.4338C17.9911 94.4338 19.3957 94.4211 20.8003 94.3955C22.2048 94.37 23.4689 94.3445 24.5926 94.3189ZM38.7264 94.3189V95.085C37.9092 95.1106 37.2835 95.2127 36.8494 95.3915C36.4408 95.5447 36.1726 95.8512 36.0449 96.3108C35.9172 96.745 35.8534 97.4345 35.8534 98.3794V117.379C35.8534 118.299 35.9172 118.988 36.0449 119.448C36.1981 119.907 36.4791 120.214 36.8877 120.367C37.2963 120.52 37.9092 120.622 38.7264 120.674V121.44C38.0368 121.389 37.1686 121.363 36.1215 121.363C35.0745 121.338 34.0147 121.325 32.9421 121.325C31.6908 121.325 30.5288 121.338 29.4563 121.363C28.4092 121.363 27.5537 121.389 26.8897 121.44V120.674C27.7069 120.622 28.3198 120.52 28.7284 120.367C29.137 120.214 29.4052 119.907 29.5329 119.448C29.6861 118.988 29.7627 118.299 29.7627 117.379V98.3794C29.7627 97.4345 29.6861 96.745 29.5329 96.3108C29.4052 95.8512 29.1243 95.5447 28.6901 95.3915C28.2815 95.2127 27.6814 95.1106 26.8897 95.085V94.3189C27.5537 94.3445 28.4092 94.37 29.4563 94.3955C30.5288 94.4211 31.6908 94.4338 32.9421 94.4338C34.0147 94.4338 35.0745 94.4211 36.1215 94.3955C37.1686 94.37 38.0368 94.3445 38.7264 94.3189ZM64.5821 94.3189C64.48 95.6213 64.4034 96.8727 64.3523 98.0729C64.3268 99.2732 64.314 100.193 64.314 100.831C64.314 101.393 64.3268 101.929 64.3523 102.44C64.3778 102.951 64.4034 103.385 64.4289 103.742H63.5479C63.1393 101.597 62.6158 99.8989 61.9773 98.6475C61.3644 97.3962 60.6238 96.5151 59.7556 96.0044C58.8873 95.4681 57.8658 95.2 56.6911 95.2H55.81V117.073C55.81 118.094 55.9122 118.86 56.1165 119.371C56.3463 119.882 56.7549 120.227 57.3423 120.405C57.9296 120.559 58.7851 120.648 59.9088 120.674V121.44C59.1171 121.414 58.0573 121.389 56.7294 121.363C55.427 121.338 54.0607 121.325 52.6306 121.325C51.226 121.325 49.8981 121.338 48.6468 121.363C47.3954 121.389 46.3867 121.414 45.6206 121.44V120.674C46.7698 120.648 47.638 120.559 48.2254 120.405C48.8128 120.227 49.2086 119.882 49.4129 119.371C49.6172 118.86 49.7193 118.094 49.7193 117.073V95.2H48.8766C47.7019 95.2 46.6804 95.4681 45.8121 96.0044C44.9438 96.5151 44.2032 97.3962 43.5903 98.6475C42.9774 99.8733 42.4412 101.572 41.9815 103.742H41.1004C41.1515 103.385 41.1771 102.951 41.1771 102.44C41.2026 101.929 41.2154 101.393 41.2154 100.831C41.2154 100.193 41.1898 99.2732 41.1387 98.0729C41.1132 96.8727 41.0494 95.6213 40.9472 94.3189C42.1219 94.3445 43.3988 94.37 44.7778 94.3955C46.1824 94.4211 47.587 94.4338 48.9915 94.4338C50.3961 94.4338 51.6602 94.4338 52.7838 94.4338C53.933 94.4338 55.1971 94.4338 56.5761 94.4338C57.9807 94.4338 59.3853 94.4211 60.7898 94.3955C62.1944 94.37 63.4585 94.3445 64.5821 94.3189ZM77.4665 94.2423L86.7749 118.222C87.1324 119.141 87.5282 119.78 87.9624 120.137C88.4221 120.469 88.8307 120.648 89.1882 120.674V121.44C88.4221 121.389 87.5155 121.363 86.4684 121.363C85.4469 121.338 84.4127 121.325 83.3656 121.325C82.1909 121.325 81.08 121.338 80.033 121.363C78.986 121.363 78.156 121.389 77.5431 121.44V120.674C78.8455 120.622 79.6627 120.405 79.9947 120.022C80.3522 119.614 80.2756 118.758 79.7649 117.456L73.2528 99.6435L73.9423 98.6475L68.1198 113.817C67.5579 115.221 67.2132 116.371 67.0855 117.264C66.9834 118.158 67.0472 118.848 67.277 119.333C67.5324 119.818 67.9282 120.163 68.4645 120.367C69.0264 120.546 69.6903 120.648 70.4564 120.674V121.44C69.6137 121.389 68.8093 121.363 68.0432 121.363C67.277 121.338 66.4981 121.325 65.7065 121.325C65.1447 121.325 64.6084 121.338 64.0976 121.363C63.6124 121.363 63.1783 121.389 62.7952 121.44V120.674C63.3315 120.571 63.8806 120.227 64.4424 119.639C65.0042 119.052 65.5533 118.056 66.0895 116.651L74.8234 94.2423C75.232 94.2678 75.6661 94.2806 76.1258 94.2806C76.611 94.2806 77.0579 94.2678 77.4665 94.2423ZM80.1479 110.408V111.174H68.7327L69.1157 110.408H80.1479ZM114.718 94.3189V95.085C113.901 95.1872 113.288 95.4043 112.879 95.7362C112.47 96.0427 112.19 96.5407 112.036 97.2302C111.909 97.9197 111.845 98.8901 111.845 100.141V121.516C111.538 121.491 111.219 121.478 110.887 121.478C110.581 121.478 110.249 121.491 109.891 121.516L93.2663 100.448V115.157C93.2663 116.562 93.3429 117.647 93.4961 118.414C93.6493 119.154 93.9813 119.69 94.4921 120.022C95.0284 120.329 95.8583 120.546 96.982 120.674V121.44C96.4968 121.389 95.8583 121.363 95.0667 121.363C94.275 121.338 93.5344 121.325 92.8449 121.325C92.2576 121.325 91.6574 121.338 91.0445 121.363C90.4316 121.363 89.9209 121.389 89.5123 121.44V120.674C90.3295 120.546 90.9424 120.329 91.351 120.022C91.7596 119.716 92.0277 119.218 92.1554 118.528C92.3086 117.813 92.3852 116.843 92.3852 115.617V98.3794C92.3852 97.4345 92.3086 96.745 92.1554 96.3108C92.0277 95.8512 91.7468 95.5447 91.3127 95.3915C90.9041 95.2127 90.3039 95.1106 89.5123 95.085V94.3189C89.9209 94.3445 90.4316 94.37 91.0445 94.3955C91.6574 94.4211 92.2576 94.4338 92.8449 94.4338C93.4578 94.4338 94.0452 94.4211 94.607 94.3955C95.1688 94.37 95.6796 94.3445 96.1392 94.3189L110.964 112.591V100.601C110.964 99.1966 110.887 98.124 110.734 97.3834C110.581 96.6173 110.236 96.0682 109.7 95.7362C109.189 95.4043 108.372 95.1872 107.248 95.085V94.3189C107.733 94.3445 108.372 94.37 109.163 94.3955C109.955 94.4211 110.696 94.4338 111.385 94.4338C111.998 94.4338 112.598 94.4211 113.186 94.3955C113.798 94.37 114.309 94.3445 114.718 94.3189ZM126.059 94.3189C126.698 94.3445 127.553 94.37 128.626 94.3955C129.724 94.4211 130.809 94.4338 131.882 94.4338C133.108 94.4338 134.295 94.4211 135.444 94.3955C136.594 94.37 137.411 94.3572 137.896 94.3572C140.271 94.3572 142.237 94.6254 143.795 95.1617C145.378 95.6724 146.553 96.4258 147.319 97.4217C148.111 98.4177 148.507 99.6179 148.507 101.022C148.507 101.891 148.328 102.772 147.971 103.666C147.613 104.534 147 105.351 146.132 106.117C145.289 106.858 144.127 107.458 142.646 107.918C141.165 108.352 139.301 108.569 137.053 108.569H133.376V107.803H136.67C138.177 107.803 139.313 107.522 140.079 106.96C140.871 106.373 141.407 105.606 141.688 104.662C141.995 103.691 142.148 102.619 142.148 101.444C142.148 99.4264 141.79 97.8686 141.075 96.7705C140.36 95.6469 139.135 95.085 137.398 95.085C136.402 95.085 135.751 95.3021 135.444 95.7362C135.163 96.1704 135.023 97.0514 135.023 98.3794V117.379C135.023 118.299 135.087 118.988 135.215 119.448C135.368 119.907 135.649 120.214 136.057 120.367C136.466 120.52 137.079 120.622 137.896 120.674V121.44C137.206 121.389 136.338 121.363 135.291 121.363C134.244 121.338 133.184 121.325 132.112 121.325C130.886 121.325 129.724 121.338 128.626 121.363C127.553 121.363 126.698 121.389 126.059 121.44V120.674C126.877 120.622 127.489 120.52 127.898 120.367C128.307 120.214 128.575 119.907 128.703 119.448C128.856 118.988 128.932 118.299 128.932 117.379V98.3794C128.932 97.4345 128.856 96.745 128.703 96.3108C128.575 95.8512 128.294 95.5447 127.86 95.3915C127.451 95.2127 126.851 95.1106 126.059 95.085V94.3189ZM133.299 107.918C134.397 107.943 135.342 107.994 136.134 108.071C136.951 108.147 137.666 108.224 138.279 108.301C138.892 108.352 139.441 108.39 139.926 108.416C142.25 108.62 143.961 109.118 145.059 109.91C146.183 110.701 146.911 111.889 147.243 113.472L148.124 117.418C148.354 118.439 148.596 119.154 148.852 119.563C149.107 119.971 149.477 120.176 149.962 120.176C150.294 120.15 150.563 120.073 150.767 119.946C150.997 119.793 151.239 119.575 151.495 119.295L152.031 119.754C151.341 120.546 150.601 121.108 149.809 121.44C149.018 121.797 148.06 121.976 146.936 121.976C145.557 121.976 144.421 121.682 143.527 121.095C142.633 120.508 142.046 119.422 141.765 117.839L141.075 114.008C140.897 112.936 140.68 112.004 140.424 111.212C140.169 110.395 139.811 109.756 139.352 109.297C138.917 108.811 138.305 108.569 137.513 108.569H133.376L133.299 107.918ZM173.076 94.3189C172.974 95.4426 172.897 96.5279 172.846 97.5749C172.82 98.622 172.808 99.4264 172.808 99.9882C172.808 100.499 172.82 100.984 172.846 101.444C172.871 101.904 172.897 102.287 172.923 102.593H172.041C171.786 100.729 171.39 99.2604 170.854 98.1878C170.318 97.0897 169.615 96.3236 168.747 95.8895C167.904 95.4298 166.908 95.2 165.759 95.2H164.189C163.448 95.2 162.886 95.2638 162.503 95.3915C162.12 95.5192 161.865 95.7746 161.737 96.1576C161.609 96.5407 161.546 97.128 161.546 97.9197V117.839C161.546 118.631 161.609 119.218 161.737 119.601C161.865 119.984 162.12 120.239 162.503 120.367C162.886 120.495 163.448 120.559 164.189 120.559H166.066C167.215 120.559 168.224 120.316 169.092 119.831C169.986 119.32 170.739 118.465 171.352 117.264C171.99 116.064 172.476 114.442 172.808 112.399H173.689C173.612 113.217 173.574 114.289 173.574 115.617C173.574 116.205 173.586 117.034 173.612 118.107C173.638 119.18 173.714 120.291 173.842 121.44C172.539 121.389 171.071 121.363 169.437 121.363C167.802 121.338 166.347 121.325 165.07 121.325C164.431 121.325 163.614 121.325 162.618 121.325C161.622 121.325 160.55 121.338 159.4 121.363C158.251 121.363 157.089 121.376 155.915 121.401C154.74 121.401 153.629 121.414 152.582 121.44V120.674C153.399 120.622 154.012 120.52 154.421 120.367C154.829 120.214 155.097 119.907 155.225 119.448C155.378 118.988 155.455 118.299 155.455 117.379V98.3794C155.455 97.4345 155.378 96.745 155.225 96.3108C155.097 95.8512 154.816 95.5447 154.382 95.3915C153.974 95.2127 153.374 95.1106 152.582 95.085V94.3189C153.629 94.3445 154.74 94.37 155.915 94.3955C157.089 94.3955 158.251 94.4083 159.4 94.4338C160.55 94.4338 161.622 94.4338 162.618 94.4338C163.614 94.4338 164.431 94.4338 165.07 94.4338C166.244 94.4338 167.572 94.4338 169.054 94.4338C170.56 94.4083 171.901 94.37 173.076 94.3189ZM167.1 107.42C167.1 107.42 167.1 107.547 167.1 107.803C167.1 108.058 167.1 108.186 167.1 108.186H160.396C160.396 108.186 160.396 108.058 160.396 107.803C160.396 107.547 160.396 107.42 160.396 107.42H167.1ZM168.211 102.363C168.109 103.819 168.058 104.93 168.058 105.696C168.083 106.462 168.096 107.164 168.096 107.803C168.096 108.441 168.109 109.143 168.134 109.91C168.16 110.676 168.224 111.787 168.326 113.242H167.445C167.317 112.348 167.074 111.518 166.717 110.752C166.385 109.986 165.9 109.373 165.261 108.914C164.623 108.428 163.793 108.186 162.771 108.186V107.42C163.537 107.42 164.189 107.266 164.725 106.96C165.261 106.628 165.695 106.207 166.027 105.696C166.385 105.16 166.666 104.598 166.87 104.01C167.074 103.423 167.228 102.874 167.33 102.363H168.211ZM189.654 94.2423L198.963 118.222C199.32 119.141 199.716 119.78 200.15 120.137C200.61 120.469 201.018 120.648 201.376 120.674V121.44C200.61 121.389 199.703 121.363 198.656 121.363C197.635 121.338 196.6 121.325 195.553 121.325C194.379 121.325 193.268 121.338 192.221 121.363C191.174 121.363 190.344 121.389 189.731 121.44V120.674C191.033 120.622 191.85 120.405 192.182 120.022C192.54 119.614 192.463 118.758 191.953 117.456L185.441 99.6435L186.13 98.6475L180.308 113.817C179.746 115.221 179.401 116.371 179.273 117.264C179.171 118.158 179.235 118.848 179.465 119.333C179.72 119.818 180.116 120.163 180.652 120.367C181.214 120.546 181.878 120.648 182.644 120.674V121.44C181.801 121.389 180.997 121.363 180.231 121.363C179.465 121.338 178.686 121.325 177.894 121.325C177.332 121.325 176.796 121.338 176.285 121.363C175.8 121.363 175.366 121.389 174.983 121.44V120.674C175.519 120.571 176.068 120.227 176.63 119.639C177.192 119.052 177.741 118.056 178.277 116.651L187.011 94.2423C187.42 94.2678 187.854 94.2806 188.314 94.2806C188.799 94.2806 189.246 94.2678 189.654 94.2423ZM192.336 110.408V111.174H180.92L181.303 110.408H192.336ZM213.728 94.3189V95.085C212.86 95.1106 212.196 95.2127 211.736 95.3915C211.302 95.5447 211.008 95.8512 210.855 96.3108C210.702 96.745 210.625 97.4345 210.625 98.3794V117.839C210.625 118.631 210.676 119.218 210.779 119.601C210.906 119.984 211.136 120.239 211.468 120.367C211.826 120.495 212.349 120.559 213.039 120.559H214.916C215.784 120.559 216.601 120.354 217.367 119.946C218.133 119.537 218.823 118.963 219.436 118.222C220.049 117.456 220.559 116.549 220.968 115.502C221.377 114.455 221.683 113.293 221.887 112.016H222.768C222.692 112.885 222.654 114.008 222.654 115.387C222.654 115.975 222.666 116.83 222.692 117.954C222.717 119.077 222.794 120.239 222.922 121.44C221.619 121.389 220.151 121.363 218.516 121.363C216.882 121.338 215.426 121.325 214.15 121.325C213.511 121.325 212.694 121.325 211.698 121.325C210.702 121.325 209.629 121.338 208.48 121.363C207.331 121.363 206.169 121.376 204.994 121.401C203.82 121.401 202.709 121.414 201.662 121.44V120.674C202.479 120.622 203.092 120.52 203.5 120.367C203.909 120.214 204.177 119.907 204.305 119.448C204.458 118.988 204.535 118.299 204.535 117.379V98.3794C204.535 97.4345 204.458 96.745 204.305 96.3108C204.177 95.8512 203.896 95.5447 203.462 95.3915C203.054 95.2127 202.453 95.1106 201.662 95.085V94.3189C202.3 94.3445 203.156 94.37 204.228 94.3955C205.326 94.4211 206.488 94.4338 207.714 94.4338C208.838 94.4338 209.936 94.4211 211.008 94.3955C212.107 94.37 213.013 94.3445 213.728 94.3189ZM253.953 94.3189C253.851 95.4426 253.774 96.5279 253.723 97.5749C253.697 98.622 253.685 99.4264 253.685 99.9882C253.685 100.499 253.697 100.984 253.723 101.444C253.748 101.904 253.774 102.287 253.799 102.593H252.918C252.663 100.729 252.267 99.2604 251.731 98.1878C251.195 97.0897 250.492 96.3236 249.624 95.8895C248.781 95.4298 247.785 95.2 246.636 95.2H245.066C244.325 95.2 243.763 95.2638 243.38 95.3915C242.997 95.5192 242.742 95.7746 242.614 96.1576C242.486 96.5407 242.422 97.128 242.422 97.9197V117.839C242.422 118.631 242.486 119.218 242.614 119.601C242.742 119.984 242.997 120.239 243.38 120.367C243.763 120.495 244.325 120.559 245.066 120.559H246.943C248.092 120.559 249.101 120.316 249.969 119.831C250.863 119.32 251.616 118.465 252.229 117.264C252.867 116.064 253.353 114.442 253.685 112.399H254.566C254.489 113.217 254.451 114.289 254.451 115.617C254.451 116.205 254.463 117.034 254.489 118.107C254.514 119.18 254.591 120.291 254.719 121.44C253.416 121.389 251.948 121.363 250.314 121.363C248.679 121.338 247.224 121.325 245.947 121.325C245.308 121.325 244.491 121.325 243.495 121.325C242.499 121.325 241.427 121.338 240.277 121.363C239.128 121.363 237.966 121.376 236.791 121.401C235.617 121.401 234.506 121.414 233.459 121.44V120.674C234.276 120.622 234.889 120.52 235.298 120.367C235.706 120.214 235.974 119.907 236.102 119.448C236.255 118.988 236.332 118.299 236.332 117.379V98.3794C236.332 97.4345 236.255 96.745 236.102 96.3108C235.974 95.8512 235.693 95.5447 235.259 95.3915C234.851 95.2127 234.251 95.1106 233.459 95.085V94.3189C234.506 94.3445 235.617 94.37 236.791 94.3955C237.966 94.3955 239.128 94.4083 240.277 94.4338C241.427 94.4338 242.499 94.4338 243.495 94.4338C244.491 94.4338 245.308 94.4338 245.947 94.4338C247.121 94.4338 248.449 94.4338 249.931 94.4338C251.437 94.4083 252.778 94.37 253.953 94.3189ZM247.977 107.42C247.977 107.42 247.977 107.547 247.977 107.803C247.977 108.058 247.977 108.186 247.977 108.186H241.273C241.273 108.186 241.273 108.058 241.273 107.803C241.273 107.547 241.273 107.42 241.273 107.42H247.977ZM249.088 102.363C248.986 103.819 248.935 104.93 248.935 105.696C248.96 106.462 248.973 107.164 248.973 107.803C248.973 108.441 248.986 109.143 249.011 109.91C249.037 110.676 249.101 111.787 249.203 113.242H248.322C248.194 112.348 247.951 111.518 247.594 110.752C247.262 109.986 246.777 109.373 246.138 108.914C245.5 108.428 244.67 108.186 243.648 108.186V107.42C244.414 107.42 245.066 107.266 245.602 106.96C246.138 106.628 246.572 106.207 246.904 105.696C247.262 105.16 247.543 104.598 247.747 104.01C247.951 103.423 248.105 102.874 248.207 102.363H249.088ZM267.313 93.8209C268.82 93.8209 269.982 93.9869 270.799 94.3189C271.616 94.6254 272.319 94.9574 272.906 95.3149C273.213 95.4936 273.455 95.6341 273.634 95.7362C273.838 95.8129 274.03 95.8512 274.209 95.8512C274.464 95.8512 274.643 95.7107 274.745 95.4298C274.873 95.1489 274.975 94.7275 275.051 94.1657H275.932C275.907 94.6509 275.868 95.2383 275.817 95.9278C275.792 96.5917 275.766 97.4728 275.741 98.5709C275.741 99.669 275.741 101.112 275.741 102.9H274.86C274.758 101.572 274.451 100.282 273.94 99.0306C273.43 97.7792 272.702 96.7577 271.757 95.9661C270.838 95.1489 269.701 94.7403 268.348 94.7403C267.122 94.7403 266.113 95.085 265.322 95.7746C264.53 96.4641 264.134 97.4217 264.134 98.6475C264.134 99.669 264.389 100.55 264.9 101.291C265.411 102.006 266.151 102.708 267.122 103.397C268.118 104.087 269.318 104.917 270.723 105.887C271.948 106.679 273.047 107.471 274.017 108.262C274.987 109.054 275.766 109.948 276.354 110.944C276.941 111.94 277.235 113.127 277.235 114.506C277.235 116.192 276.788 117.584 275.894 118.682C275.026 119.78 273.877 120.61 272.446 121.172C271.016 121.708 269.446 121.976 267.735 121.976C266.151 121.976 264.887 121.823 263.942 121.516C262.998 121.21 262.206 120.891 261.568 120.559C261.006 120.201 260.572 120.022 260.265 120.022C260.01 120.022 259.818 120.163 259.691 120.444C259.588 120.725 259.499 121.146 259.422 121.708H258.541C258.592 121.095 258.618 120.38 258.618 119.563C258.643 118.745 258.656 117.686 258.656 116.383C258.682 115.055 258.695 113.383 258.695 111.365H259.576C259.678 113.051 259.959 114.634 260.418 116.115C260.904 117.571 261.631 118.745 262.602 119.639C263.598 120.533 264.913 120.98 266.547 120.98C267.441 120.98 268.233 120.827 268.922 120.52C269.637 120.188 270.212 119.703 270.646 119.065C271.08 118.426 271.297 117.635 271.297 116.69C271.297 115.617 271.042 114.685 270.531 113.893C270.046 113.102 269.369 112.361 268.501 111.672C267.658 110.982 266.675 110.28 265.551 109.565C264.351 108.773 263.227 107.981 262.18 107.19C261.133 106.398 260.291 105.492 259.652 104.47C259.039 103.449 258.733 102.236 258.733 100.831C258.733 99.2221 259.129 97.9069 259.92 96.8854C260.738 95.8384 261.797 95.0723 263.1 94.5871C264.428 94.0763 265.832 93.8209 267.313 93.8209ZM303.397 94.3189C303.295 95.6213 303.218 96.8727 303.167 98.0729C303.142 99.2732 303.129 100.193 303.129 100.831C303.129 101.393 303.142 101.929 303.167 102.44C303.193 102.951 303.218 103.385 303.244 103.742H302.363C301.954 101.597 301.431 99.8989 300.792 98.6475C300.18 97.3962 299.439 96.5151 298.571 96.0044C297.702 95.4681 296.681 95.2 295.506 95.2H294.625V117.073C294.625 118.094 294.727 118.86 294.932 119.371C295.161 119.882 295.57 120.227 296.157 120.405C296.745 120.559 297.6 120.648 298.724 120.674V121.44C297.932 121.414 296.872 121.389 295.544 121.363C294.242 121.338 292.876 121.325 291.446 121.325C290.041 121.325 288.713 121.338 287.462 121.363C286.211 121.389 285.202 121.414 284.436 121.44V120.674C285.585 120.648 286.453 120.559 287.041 120.405C287.628 120.227 288.024 119.882 288.228 119.371C288.432 118.86 288.534 118.094 288.534 117.073V95.2H287.692C286.517 95.2 285.496 95.4681 284.627 96.0044C283.759 96.5151 283.018 97.3962 282.405 98.6475C281.793 99.8733 281.256 101.572 280.797 103.742H279.916C279.967 103.385 279.992 102.951 279.992 102.44C280.018 101.929 280.03 101.393 280.03 100.831C280.03 100.193 280.005 99.2732 279.954 98.0729C279.928 96.8727 279.864 95.6213 279.762 94.3189C280.937 94.3445 282.214 94.37 283.593 94.3955C284.998 94.4211 286.402 94.4338 287.807 94.4338C289.211 94.4338 290.475 94.4338 291.599 94.4338C292.748 94.4338 294.012 94.4338 295.391 94.4338C296.796 94.4338 298.2 94.4211 299.605 94.3955C301.01 94.37 302.274 94.3445 303.397 94.3189ZM316.282 94.2423L325.59 118.222C325.948 119.141 326.343 119.78 326.778 120.137C327.237 120.469 327.646 120.648 328.003 120.674V121.44C327.237 121.389 326.331 121.363 325.284 121.363C324.262 121.338 323.228 121.325 322.181 121.325C321.006 121.325 319.895 121.338 318.848 121.363C317.801 121.363 316.971 121.389 316.358 121.44V120.674C317.661 120.622 318.478 120.405 318.81 120.022C319.167 119.614 319.091 118.758 318.58 117.456L312.068 99.6435L312.757 98.6475L306.935 113.817C306.373 115.221 306.028 116.371 305.901 117.264C305.798 118.158 305.862 118.848 306.092 119.333C306.348 119.818 306.743 120.163 307.28 120.367C307.841 120.546 308.505 120.648 309.272 120.674V121.44C308.429 121.389 307.624 121.363 306.858 121.363C306.092 121.338 305.313 121.325 304.522 121.325C303.96 121.325 303.424 121.338 302.913 121.363C302.428 121.363 301.993 121.389 301.61 121.44V120.674C302.147 120.571 302.696 120.227 303.258 119.639C303.819 119.052 304.368 118.056 304.905 116.651L313.638 94.2423C314.047 94.2678 314.481 94.2806 314.941 94.2806C315.426 94.2806 315.873 94.2678 316.282 94.2423ZM318.963 110.408V111.174H307.548L307.931 110.408H318.963ZM349.746 94.3189C349.644 95.6213 349.567 96.8727 349.516 98.0729C349.491 99.2732 349.478 100.193 349.478 100.831C349.478 101.393 349.491 101.929 349.516 102.44C349.542 102.951 349.567 103.385 349.593 103.742H348.712C348.303 101.597 347.78 99.8989 347.141 98.6475C346.529 97.3962 345.788 96.5151 344.92 96.0044C344.051 95.4681 343.03 95.2 341.855 95.2H340.974V117.073C340.974 118.094 341.076 118.86 341.281 119.371C341.51 119.882 341.919 120.227 342.506 120.405C343.094 120.559 343.949 120.648 345.073 120.674V121.44C344.281 121.414 343.221 121.389 341.893 121.363C340.591 121.338 339.225 121.325 337.795 121.325C336.39 121.325 335.062 121.338 333.811 121.363C332.56 121.389 331.551 121.414 330.785 121.44V120.674C331.934 120.648 332.802 120.559 333.39 120.405C333.977 120.227 334.373 119.882 334.577 119.371C334.781 118.86 334.883 118.094 334.883 117.073V95.2H334.041C332.866 95.2 331.845 95.4681 330.976 96.0044C330.108 96.5151 329.367 97.3962 328.754 98.6475C328.142 99.8733 327.605 101.572 327.146 103.742H326.265C326.316 103.385 326.341 102.951 326.341 102.44C326.367 101.929 326.379 101.393 326.379 100.831C326.379 100.193 326.354 99.2732 326.303 98.0729C326.277 96.8727 326.213 95.6213 326.111 94.3189C327.286 94.3445 328.563 94.37 329.942 94.3955C331.347 94.4211 332.751 94.4338 334.156 94.4338C335.56 94.4338 336.824 94.4338 337.948 94.4338C339.097 94.4338 340.361 94.4338 341.74 94.4338C343.145 94.4338 344.549 94.4211 345.954 94.3955C347.359 94.37 348.623 94.3445 349.746 94.3189ZM372.537 94.3189C372.435 95.4426 372.358 96.5279 372.307 97.5749C372.282 98.622 372.269 99.4264 372.269 99.9882C372.269 100.499 372.282 100.984 372.307 101.444C372.333 101.904 372.358 102.287 372.384 102.593H371.503C371.248 100.729 370.852 99.2604 370.315 98.1878C369.779 97.0897 369.077 96.3236 368.209 95.8895C367.366 95.4298 366.37 95.2 365.221 95.2H363.65C362.91 95.2 362.348 95.2638 361.965 95.3915C361.582 95.5192 361.326 95.7746 361.199 96.1576C361.071 96.5407 361.007 97.128 361.007 97.9197V117.839C361.007 118.631 361.071 119.218 361.199 119.601C361.326 119.984 361.582 120.239 361.965 120.367C362.348 120.495 362.91 120.559 363.65 120.559H365.527C366.676 120.559 367.685 120.316 368.553 119.831C369.447 119.32 370.201 118.465 370.813 117.264C371.452 116.064 371.937 114.442 372.269 112.399H373.15C373.074 113.217 373.035 114.289 373.035 115.617C373.035 116.205 373.048 117.034 373.074 118.107C373.099 119.18 373.176 120.291 373.303 121.44C372.001 121.389 370.533 121.363 368.898 121.363C367.264 121.338 365.808 121.325 364.531 121.325C363.893 121.325 363.076 121.325 362.08 121.325C361.084 121.325 360.011 121.338 358.862 121.363C357.713 121.363 356.551 121.376 355.376 121.401C354.201 121.401 353.09 121.414 352.043 121.44V120.674C352.861 120.622 353.474 120.52 353.882 120.367C354.291 120.214 354.559 119.907 354.687 119.448C354.84 118.988 354.916 118.299 354.916 117.379V98.3794C354.916 97.4345 354.84 96.745 354.687 96.3108C354.559 95.8512 354.278 95.5447 353.844 95.3915C353.435 95.2127 352.835 95.1106 352.043 95.085V94.3189C353.09 94.3445 354.201 94.37 355.376 94.3955C356.551 94.3955 357.713 94.4083 358.862 94.4338C360.011 94.4338 361.084 94.4338 362.08 94.4338C363.076 94.4338 363.893 94.4338 364.531 94.4338C365.706 94.4338 367.034 94.4338 368.515 94.4338C370.022 94.4083 371.363 94.37 372.537 94.3189ZM366.561 107.42C366.561 107.42 366.561 107.547 366.561 107.803C366.561 108.058 366.561 108.186 366.561 108.186H359.858C359.858 108.186 359.858 108.058 359.858 107.803C359.858 107.547 359.858 107.42 359.858 107.42H366.561ZM367.672 102.363C367.57 103.819 367.519 104.93 367.519 105.696C367.545 106.462 367.557 107.164 367.557 107.803C367.557 108.441 367.57 109.143 367.596 109.91C367.621 110.676 367.685 111.787 367.787 113.242H366.906C366.779 112.348 366.536 111.518 366.178 110.752C365.846 109.986 365.361 109.373 364.723 108.914C364.084 108.428 363.254 108.186 362.233 108.186V107.42C362.999 107.42 363.65 107.266 364.186 106.96C364.723 106.628 365.157 106.207 365.489 105.696C365.846 105.16 366.127 104.598 366.332 104.01C366.536 103.423 366.689 102.874 366.791 102.363H367.672Z" fill="black"/>
<path d="M162.976 49.0504L148.31 61.9858C148.201 62.0838 148.063 62.1294 147.943 62.2106V74.6219C147.943 75.2152 148.424 75.6957 149.017 75.6957H159.032L156.533 70.8094L163.52 66.5144L159.483 58.5135L169.418 67.6928L162.431 71.9878L165.11 75.6957H176.935C177.528 75.6957 178.008 75.2152 178.008 74.6219V62.2133C177.894 62.1355 177.759 62.0912 177.655 61.9986L162.976 49.0504ZM181.947 57.1921L178.008 53.7138V44.5567C178.008 43.9635 177.528 43.483 176.935 43.483H172.64C172.046 43.483 171.566 43.9635 171.566 44.5567V48.0256L164.771 42.0274C164.259 41.567 163.617 41.3361 162.976 41.3355C162.334 41.3348 161.694 41.5643 161.184 42.0247L144.004 57.1921C143.564 57.5888 143.527 58.2672 143.923 58.7088L145.359 60.3074C145.755 60.7483 146.434 60.7852 146.876 60.3886L162.266 46.8136C162.672 46.4559 163.28 46.4559 163.686 46.8136L179.076 60.3879C179.517 60.7839 180.196 60.7476 180.593 60.3067L182.029 58.7082C182.425 58.2672 182.389 57.5881 181.947 57.1921V57.1921Z" fill="black" fill-opacity="0.5"/>
</svg>
